<svg version="1.1" id="Layer_1" xmlns="http://www.w3.org/2000/svg" xmlns:xlink="http://www.w3.org/1999/xlink" x="0px" y="0px"
	 width="100%" viewBox="0 0 50 50" enable-background="new 0 0 50 50" xml:space="preserve">
<path fill="#000000" opacity="1.000000" stroke="none" 
	d="
M1.000000,26.000059 
	C1.000000,17.333385 1.000000,9.166721 1.000000,1.000043 
	C17.666643,1.000028 34.333286,1.000028 50.999947,1.000014 
	C50.999962,17.666637 50.999962,34.333275 50.999981,50.999931 
	C34.333366,50.999954 17.666735,50.999954 1.000051,50.999977 
	C1.000000,42.833355 1.000000,34.666714 1.000000,26.000059 
M23.999842,32.757660 
	C25.044819,28.065334 19.751812,31.370142 18.732075,28.522236 
	C20.626707,28.180449 22.257116,27.886328 23.887526,27.592207 
	C23.444185,27.297588 23.000845,27.002972 22.557503,26.708353 
	C24.518604,22.865438 26.216576,18.842918 28.629248,15.308231 
	C29.218769,14.444553 32.150513,15.179605 34.005363,15.179605 
	C27.481905,17.998259 26.161520,20.398077 27.589720,27.853891 
	C29.401352,27.990967 31.212982,28.128042 33.024612,28.265116 
	C33.021164,28.708364 33.017715,29.151613 33.014271,29.594860 
	C31.079905,29.820877 29.145540,30.046892 27.225040,30.271288 
	C27.225040,36.296093 27.225040,42.061256 27.225040,47.758160 
	C35.748074,50.225578 47.504128,37.096161 48.267044,29.171444 
	C49.715557,14.125130 38.260078,1.805946 22.384907,3.938803 
	C13.331342,5.155166 1.995505,12.893100 3.936383,30.509600 
	C4.873723,39.017433 15.407784,48.472359 23.999992,47.589397 
	C23.999992,42.986164 23.999992,38.346218 23.999842,32.757660 
z"/>
<path fill="#FFFFFF" opacity="1.000000" stroke="none" 
	d="
M23.999916,33.231964 
	C23.999992,38.346218 23.999992,42.986164 23.999992,47.589397 
	C15.407784,48.472359 4.873723,39.017433 3.936383,30.509600 
	C1.995505,12.893100 13.331342,5.155166 22.384907,3.938803 
	C38.260078,1.805946 49.715557,14.125130 48.267044,29.171444 
	C47.504128,37.096161 35.748074,50.225578 27.225040,47.758160 
	C27.225040,42.061256 27.225040,36.296093 27.225040,30.271288 
	C29.145540,30.046892 31.079905,29.820877 33.014271,29.594860 
	C33.017715,29.151613 33.021164,28.708364 33.024612,28.265116 
	C31.212982,28.128042 29.401352,27.990967 27.589813,27.853540 
	C26.161520,20.398077 27.481905,17.998259 34.005363,15.179605 
	C32.150513,15.179605 29.218769,14.444553 28.629248,15.308231 
	C26.216576,18.842918 24.518604,22.865438 22.557503,26.708353 
	C23.000845,27.002972 23.444185,27.297588 23.887526,27.592207 
	C22.257116,27.886328 20.626707,28.180449 18.732075,28.522236 
	C19.751812,31.370142 25.044819,28.065334 23.999916,33.231964 
M43.994251,18.908430 
	C39.811779,7.164085 25.880249,4.282168 16.941130,8.957525 
	C7.851213,13.711753 5.910696,21.895906 7.127731,30.937624 
	C7.941920,36.986485 14.680129,42.935467 20.728569,43.838333 
	C20.728569,40.262955 20.728569,36.714344 20.728569,33.191200 
	C19.039541,33.029510 17.622572,32.893864 16.249805,32.762447 
	C16.249805,30.037069 16.249805,27.618183 16.249805,25.173216 
	C17.929775,25.035902 19.364084,24.918667 20.604174,24.817307 
	C21.111490,22.313322 21.504221,20.108301 22.010981,17.929806 
	C23.028677,13.554860 28.798220,10.414230 34.310562,12.289297 
	C36.074512,12.889319 36.712189,16.800392 38.278419,20.055353 
	C33.252533,19.848240 29.619871,19.435038 30.119259,24.772644 
	C32.346378,24.922852 34.612595,25.075697 36.824348,25.224867 
	C36.374527,27.932570 35.961876,30.416544 35.560715,32.831348 
	C33.614651,32.988831 31.874859,33.129616 30.085081,33.274448 
	C30.085081,37.267746 30.085081,40.904827 30.085081,44.549404 
	C41.606216,42.322140 47.677731,31.144888 43.994251,18.908430 
z"/>
<path fill="#000000" opacity="1.000000" stroke="none" 
	d="
M44.091862,19.315159 
	C47.677731,31.144888 41.606216,42.322140 30.085081,44.549404 
	C30.085081,40.904827 30.085081,37.267746 30.085081,33.274448 
	C31.874859,33.129616 33.614651,32.988831 35.560715,32.831348 
	C35.961876,30.416544 36.374527,27.932570 36.824348,25.224867 
	C34.612595,25.075697 32.346378,24.922852 30.119259,24.772644 
	C29.619871,19.435038 33.252533,19.848240 38.278419,20.055353 
	C36.712189,16.800392 36.074512,12.889319 34.310562,12.289297 
	C28.798220,10.414230 23.028677,13.554860 22.010981,17.929806 
	C21.504221,20.108301 21.111490,22.313322 20.604174,24.817307 
	C19.364084,24.918667 17.929775,25.035902 16.249805,25.173216 
	C16.249805,27.618183 16.249805,30.037069 16.249805,32.762447 
	C17.622572,32.893864 19.039541,33.029510 20.728569,33.191200 
	C20.728569,36.714344 20.728569,40.262955 20.728569,43.838333 
	C14.680129,42.935467 7.941920,36.986485 7.127731,30.937624 
	C5.910696,21.895906 7.851213,13.711753 16.941130,8.957525 
	C25.880249,4.282168 39.811779,7.164085 44.091862,19.315159 
z"/>
</svg>