<svg version="1.1" id="Layer_1" xmlns="http://www.w3.org/2000/svg" xmlns:xlink="http://www.w3.org/1999/xlink" x="0px" y="0px"
	 width="100%" viewBox="0 0 512 512" enable-background="new 0 0 512 512" xml:space="preserve">
<path fill="#FFFFFF" opacity="1.000000" stroke="none" 
	d="
M513.000000,132.000000 
	C513.000000,214.354233 513.000000,296.708466 512.630859,379.229370 
	C511.508850,382.811157 510.497620,386.192444 510.045593,389.646851 
	C507.447754,409.497711 501.206696,428.115723 490.932220,445.271973 
	C479.418335,464.497803 463.946838,479.904602 444.472260,491.046417 
	C422.658295,503.526642 399.014679,509.824097 373.957977,511.078705 
	C372.942474,511.129547 371.984680,512.333374 371.000000,513.000000 
	C295.645782,513.000000 220.291550,513.000000 144.771484,512.621948 
	C143.761505,511.830139 142.950058,511.154938 142.067963,511.044678 
	C136.088409,510.297119 130.081375,509.764740 124.106689,508.983490 
	C108.368896,506.925598 93.307899,502.312012 79.087982,495.441681 
	C63.937401,488.121704 50.924351,477.866882 39.573620,465.264313 
	C28.479940,452.947266 19.459616,439.414642 14.532003,423.710266 
	C10.168303,409.803101 6.909050,395.481628 4.213402,381.145386 
	C2.704969,373.123016 3.408034,364.694366 2.917351,356.460541 
	C2.846591,355.273163 1.666655,354.151855 1.000006,353.000000 
	C1.000000,289.979095 1.000000,226.958206 1.383081,163.771698 
	C2.177417,162.259598 2.839314,160.935318 2.960670,159.563202 
	C4.027503,147.501099 4.640331,135.387589 6.080362,123.372345 
	C8.280038,105.018791 13.931526,87.644257 23.106993,71.574783 
	C36.221764,48.606182 54.563927,30.837229 78.255402,19.075550 
	C97.956413,9.294949 119.027496,4.133186 141.039963,2.921526 
	C142.058807,2.865444 143.014755,1.666615 144.000000,1.000003 
	C219.020889,1.000000 294.041779,1.000000 369.228455,1.379448 
	C370.072968,2.166624 370.717285,2.850175 371.435791,2.940036 
	C379.997040,4.010755 388.587677,4.859136 397.134674,6.028401 
	C411.918762,8.050926 425.792328,13.180917 439.058960,19.703241 
	C453.412506,26.759943 466.010498,36.543343 476.132629,48.894867 
	C483.460480,57.836697 490.440216,67.352966 495.812073,77.542564 
	C504.409515,93.850487 509.284576,111.568268 511.078491,130.033981 
	C511.147552,130.744843 512.334106,131.347122 513.000000,132.000000 
M292.500000,48.000000 
	C254.420792,48.333332 216.339615,48.529861 178.263474,49.076283 
	C165.423187,49.260551 152.596146,50.341789 139.762192,50.996151 
	C125.866920,51.704620 112.595581,55.371914 100.298637,61.472454 
	C78.842499,72.116898 64.482109,89.317612 57.019642,112.150978 
	C49.855343,134.072037 49.418922,156.940475 49.248569,179.529190 
	C48.825726,235.600250 49.578526,291.681641 50.081867,347.756866 
	C50.171665,357.761108 51.170380,367.769714 52.035225,377.751556 
	C53.299736,392.346222 57.219891,406.239746 64.535889,418.973846 
	C74.952438,437.104736 89.970642,449.751831 109.721947,457.103027 
	C129.365738,464.414246 149.924225,464.980591 170.333633,465.812561 
	C197.217392,466.908417 224.155151,466.855133 251.070709,466.930054 
	C267.486206,466.975739 283.903473,466.326721 300.320160,466.001801 
	C317.569733,465.660400 334.824860,465.495483 352.067291,464.936554 
	C361.743713,464.622894 371.421814,463.895996 381.059113,462.948029 
	C395.312561,461.545959 408.765381,457.418396 421.104340,449.989532 
	C443.032959,436.786957 456.130402,417.184509 461.919739,392.607330 
	C466.226807,374.322754 466.500854,355.543304 466.862396,336.904236 
	C467.395447,309.419006 467.179840,281.914368 466.955658,254.420654 
	C466.657959,217.917328 468.603271,181.350967 464.864929,144.938950 
	C463.731384,133.898026 461.955780,122.732605 458.782776,112.130440 
	C451.797943,88.791595 436.843231,71.764809 414.866821,60.966419 
	C396.983917,52.179424 377.629181,50.368767 358.240356,49.103668 
	C344.858582,48.230522 331.414307,48.262192 317.995575,48.026455 
	C309.832733,47.883049 301.665344,48.000000 292.500000,48.000000 
z"/>
<path fill="#000000" opacity="1.000000" stroke="none" 
	d="
M143.531342,1.000003 
	C143.014755,1.666615 142.058807,2.865444 141.039963,2.921526 
	C119.027496,4.133186 97.956413,9.294949 78.255402,19.075550 
	C54.563927,30.837229 36.221764,48.606182 23.106993,71.574783 
	C13.931526,87.644257 8.280038,105.018791 6.080362,123.372345 
	C4.640331,135.387589 4.027503,147.501099 2.960670,159.563202 
	C2.839314,160.935318 2.177417,162.259598 1.383081,163.303040 
	C1.000000,109.077545 1.000000,55.155087 1.000000,1.000000 
	C48.353973,1.000000 95.708328,1.000000 143.531342,1.000003 
z"/>
<path fill="#000000" opacity="1.000000" stroke="none" 
	d="
M1.000006,353.468658 
	C1.666655,354.151855 2.846591,355.273163 2.917351,356.460541 
	C3.408034,364.694366 2.704969,373.123016 4.213402,381.145386 
	C6.909050,395.481628 10.168303,409.803101 14.532003,423.710266 
	C19.459616,439.414642 28.479940,452.947266 39.573620,465.264313 
	C50.924351,477.866882 63.937401,488.121704 79.087982,495.441681 
	C93.307899,502.312012 108.368896,506.925598 124.106689,508.983490 
	C130.081375,509.764740 136.088409,510.297119 142.067963,511.044678 
	C142.950058,511.154938 143.761505,511.830139 144.302826,512.621948 
	C96.402245,513.000000 48.804485,513.000000 1.000000,513.000000 
	C1.000000,459.979279 1.000000,406.958313 1.000006,353.468658 
z"/>
<path fill="#000000" opacity="1.000000" stroke="none" 
	d="
M371.468628,513.000000 
	C371.984680,512.333374 372.942474,511.129547 373.957977,511.078705 
	C399.014679,509.824097 422.658295,503.526642 444.472260,491.046417 
	C463.946838,479.904602 479.418335,464.497803 490.932220,445.271973 
	C501.206696,428.115723 507.447754,409.497711 510.045593,389.646851 
	C510.497620,386.192444 511.508850,382.811157 512.630859,379.698059 
	C513.000000,424.262695 513.000000,468.525391 513.000000,513.000000 
	C465.979309,513.000000 418.958313,513.000000 371.468628,513.000000 
z"/>
<path fill="#000000" opacity="1.000000" stroke="none" 
	d="
M513.000000,131.531342 
	C512.334106,131.347122 511.147552,130.744843 511.078491,130.033981 
	C509.284576,111.568268 504.409515,93.850487 495.812073,77.542564 
	C490.440216,67.352966 483.460480,57.836697 476.132629,48.894867 
	C466.010498,36.543343 453.412506,26.759943 439.058960,19.703241 
	C425.792328,13.180917 411.918762,8.050926 397.134674,6.028401 
	C388.587677,4.859136 379.997040,4.010755 371.435791,2.940036 
	C370.717285,2.850175 370.072968,2.166624 369.697083,1.379448 
	C417.590454,1.000000 465.180908,1.000000 513.000000,1.000000 
	C513.000000,44.353958 513.000000,87.708321 513.000000,131.531342 
z"/>
<path fill="#000000" opacity="1.000000" stroke="none" 
	d="
M293.000000,48.000000 
	C301.665344,48.000000 309.832733,47.883049 317.995575,48.026455 
	C331.414307,48.262192 344.858582,48.230522 358.240356,49.103668 
	C377.629181,50.368767 396.983917,52.179424 414.866821,60.966419 
	C436.843231,71.764809 451.797943,88.791595 458.782776,112.130440 
	C461.955780,122.732605 463.731384,133.898026 464.864929,144.938950 
	C468.603271,181.350967 466.657959,217.917328 466.955658,254.420654 
	C467.179840,281.914368 467.395447,309.419006 466.862396,336.904236 
	C466.500854,355.543304 466.226807,374.322754 461.919739,392.607330 
	C456.130402,417.184509 443.032959,436.786957 421.104340,449.989532 
	C408.765381,457.418396 395.312561,461.545959 381.059113,462.948029 
	C371.421814,463.895996 361.743713,464.622894 352.067291,464.936554 
	C334.824860,465.495483 317.569733,465.660400 300.320160,466.001801 
	C283.903473,466.326721 267.486206,466.975739 251.070709,466.930054 
	C224.155151,466.855133 197.217392,466.908417 170.333633,465.812561 
	C149.924225,464.980591 129.365738,464.414246 109.721947,457.103027 
	C89.970642,449.751831 74.952438,437.104736 64.535889,418.973846 
	C57.219891,406.239746 53.299736,392.346222 52.035225,377.751556 
	C51.170380,367.769714 50.171665,357.761108 50.081867,347.756866 
	C49.578526,291.681641 48.825726,235.600250 49.248569,179.529190 
	C49.418922,156.940475 49.855343,134.072037 57.019642,112.150978 
	C64.482109,89.317612 78.842499,72.116898 100.298637,61.472454 
	C112.595581,55.371914 125.866920,51.704620 139.762192,50.996151 
	C152.596146,50.341789 165.423187,49.260551 178.263474,49.076283 
	C216.339615,48.529861 254.420792,48.333332 293.000000,48.000000 
M133.484039,300.988342 
	C135.519928,306.034180 137.240265,311.236481 139.650009,316.096985 
	C147.300568,331.528168 157.489456,345.242035 170.844177,356.046844 
	C180.323425,363.716156 190.482315,370.986145 201.357697,376.376892 
	C214.740097,383.010437 229.215393,386.847565 244.435242,388.239349 
	C259.658661,389.631470 274.504791,388.883759 289.233643,385.298798 
	C308.398407,380.634216 325.648956,372.174286 341.036835,359.602875 
	C359.914581,344.180267 373.669067,325.234497 381.928619,302.424896 
	C388.828827,283.369263 391.481110,263.763977 389.158234,243.386230 
	C387.550201,229.279480 384.180786,215.823318 378.429108,202.947449 
	C368.997223,181.833099 354.863251,164.486282 336.254333,150.707199 
	C315.019135,134.983490 291.080261,126.775658 264.908020,125.087395 
	C251.788620,124.241127 238.787598,125.770531 225.964890,128.956772 
	C205.739944,133.982330 187.557343,143.126404 171.941650,156.752762 
	C156.838531,169.931839 144.741852,185.530823 136.868835,204.302856 
	C130.472870,219.553070 126.715126,235.258179 126.009094,251.727356 
	C125.296310,268.354034 127.869255,284.518616 133.484039,300.988342 
M425.973297,124.083427 
	C427.952484,100.125748 405.873505,82.967003 383.329803,91.053818 
	C371.831696,95.178375 362.420410,107.622711 363.870605,123.521202 
	C365.662903,143.169724 383.756195,155.255432 403.384277,150.077438 
	C416.289551,146.672974 423.205109,137.711197 425.973297,124.083427 
z"/>
<path fill="#FFFFFF" opacity="1.000000" stroke="none" 
	d="
M133.259750,300.644958 
	C127.869255,284.518616 125.296310,268.354034 126.009094,251.727356 
	C126.715126,235.258179 130.472870,219.553070 136.868835,204.302856 
	C144.741852,185.530823 156.838531,169.931839 171.941650,156.752762 
	C187.557343,143.126404 205.739944,133.982330 225.964890,128.956772 
	C238.787598,125.770531 251.788620,124.241127 264.908020,125.087395 
	C291.080261,126.775658 315.019135,134.983490 336.254333,150.707199 
	C354.863251,164.486282 368.997223,181.833099 378.429108,202.947449 
	C384.180786,215.823318 387.550201,229.279480 389.158234,243.386230 
	C391.481110,263.763977 388.828827,283.369263 381.928619,302.424896 
	C373.669067,325.234497 359.914581,344.180267 341.036835,359.602875 
	C325.648956,372.174286 308.398407,380.634216 289.233643,385.298798 
	C274.504791,388.883759 259.658661,389.631470 244.435242,388.239349 
	C229.215393,386.847565 214.740097,383.010437 201.357697,376.376892 
	C190.482315,370.986145 180.323425,363.716156 170.844177,356.046844 
	C157.489456,345.242035 147.300568,331.528168 139.650009,316.096985 
	C137.240265,311.236481 135.519928,306.034180 133.259750,300.644958 
M284.645966,337.040985 
	C305.660156,330.442688 321.325012,317.123901 331.894989,298.087524 
	C341.791473,280.264069 345.319275,261.185303 341.038940,240.888535 
	C335.639160,215.283432 321.778625,195.798996 298.986267,183.085419 
	C281.162292,173.143234 262.075012,169.728806 241.778091,173.944336 
	C226.572708,177.102371 213.018677,183.505981 201.641586,193.976349 
	C185.689590,208.656998 176.222809,226.576141 173.739166,248.528534 
	C172.337402,260.918335 173.831039,272.619720 177.673965,284.025330 
	C183.245163,300.560394 193.241394,314.250031 207.294540,324.761292 
	C221.636688,335.488678 237.836700,341.215790 255.715866,341.963043 
	C265.397217,342.367676 274.837280,340.771667 284.645966,337.040985 
z"/>
<path fill="#FFFFFF" opacity="1.000000" stroke="none" 
	d="
M425.795837,124.493988 
	C423.205109,137.711197 416.289551,146.672974 403.384277,150.077438 
	C383.756195,155.255432 365.662903,143.169724 363.870605,123.521202 
	C362.420410,107.622711 371.831696,95.178375 383.329803,91.053818 
	C405.873505,82.967003 427.952484,100.125748 425.795837,124.493988 
z"/>
<path fill="#000000" opacity="1.000000" stroke="none" 
	d="
M284.313782,337.282227 
	C274.837280,340.771667 265.397217,342.367676 255.715866,341.963043 
	C237.836700,341.215790 221.636688,335.488678 207.294540,324.761292 
	C193.241394,314.250031 183.245163,300.560394 177.673965,284.025330 
	C173.831039,272.619720 172.337402,260.918335 173.739166,248.528534 
	C176.222809,226.576141 185.689590,208.656998 201.641586,193.976349 
	C213.018677,183.505981 226.572708,177.102371 241.778091,173.944336 
	C262.075012,169.728806 281.162292,173.143234 298.986267,183.085419 
	C321.778625,195.798996 335.639160,215.283432 341.038940,240.888535 
	C345.319275,261.185303 341.791473,280.264069 331.894989,298.087524 
	C321.325012,317.123901 305.660156,330.442688 284.313782,337.282227 
z"/>
</svg>